<svg xmlns="http://www.w3.org/2000/svg" viewBox="0 0 512 512" width="512" height="512">
  <defs>
    <linearGradient id="bg" x1="0%" y1="0%" x2="100%" y2="100%">
      <stop offset="0%" stop-color="#7c3aed"/>
      <stop offset="50%" stop-color="#d946ef"/>
      <stop offset="100%" stop-color="#f97316"/>
    </linearGradient>
    <filter id="glow" x="-20%" y="-20%" width="140%" height="140%">
      <feGaussianBlur stdDeviation="8" result="blur"/>
      <feMerge>
        <feMergeNode in="blur"/>
        <feMergeNode in="SourceGraphic"/>
      </feMerge>
    </filter>
  </defs>
  <rect width="512" height="512" rx="112" ry="112" fill="url(#bg)"/>
  <g transform="translate(96 116)" fill="#ffffff" filter="url(#glow)">
    <rect x="0" y="32" width="320" height="252" rx="24" ry="24" fill="#ffffff" fill-opacity="0.18"/>
    <rect x="0" y="32" width="320" height="56" rx="24" ry="24" fill="#ffffff" fill-opacity="0.4"/>
    <rect x="0" y="76" width="320" height="12" fill="#ffffff" fill-opacity="0.4"/>
    <rect x="56" y="0" width="14" height="48" rx="7" fill="#ffffff"/>
    <rect x="250" y="0" width="14" height="48" rx="7" fill="#ffffff"/>
    <g fill="#ffffff">
      <circle cx="56" cy="124" r="10"/>
      <circle cx="120" cy="124" r="10" fill-opacity="0.6"/>
      <circle cx="184" cy="124" r="10" fill-opacity="0.6"/>
      <circle cx="248" cy="124" r="10" fill-opacity="0.6"/>
      <circle cx="56" cy="172" r="10" fill-opacity="0.6"/>
      <circle cx="120" cy="172" r="10"/>
      <circle cx="184" cy="172" r="10" fill-opacity="0.6"/>
      <circle cx="248" cy="172" r="10" fill-opacity="0.6"/>
      <circle cx="56" cy="220" r="10" fill-opacity="0.6"/>
      <circle cx="120" cy="220" r="10" fill-opacity="0.6"/>
      <circle cx="184" cy="220" r="10"/>
      <circle cx="248" cy="220" r="10" fill-opacity="0.4"/>
    </g>
  </g>
  <g transform="translate(304 304)">
    <circle cx="56" cy="56" r="64" fill="#ffffff"/>
    <path d="M 56 28 L 56 56 L 76 68" stroke="#7c3aed" stroke-width="8" stroke-linecap="round" fill="none"/>
  </g>
</svg>
